<?xml version="1.0" encoding="UTF-8" standalone="no"?>
<!-- Created with Inkscape (http://www.inkscape.org/) -->

<svg
   xmlns:dc="http://purl.org/dc/elements/1.1/"
   xmlns:cc="http://creativecommons.org/ns#"
   xmlns:rdf="http://www.w3.org/1999/02/22-rdf-syntax-ns#"
   xmlns:svg="http://www.w3.org/2000/svg"
   xmlns="http://www.w3.org/2000/svg"
   xmlns:sodipodi="http://sodipodi.sourceforge.net/DTD/sodipodi-0.dtd"
   xmlns:inkscape="http://www.inkscape.org/namespaces/inkscape"
   width="765"
   height="990"
   id="svg2"
   version="1.1"
   inkscape:version="0.48.4 r9939"
   sodipodi:docname="panel-1.pdf">
  <defs
     id="defs4" />
  <sodipodi:namedview
     id="base"
     pagecolor="#ffffff"
     bordercolor="#666666"
     borderopacity="1.0"
     inkscape:pageopacity="0.0"
     inkscape:pageshadow="2"
     inkscape:zoom="7.9195959"
     inkscape:cx="581.33032"
     inkscape:cy="589.55141"
     inkscape:document-units="in"
     inkscape:current-layer="layer1"
     showgrid="false"
     showguides="true"
     inkscape:guide-bbox="true"
     inkscape:snap-global="true"
     inkscape:snap-object-midpoints="true"
     inkscape:window-width="1920"
     inkscape:window-height="1058"
     inkscape:window-x="1912"
     inkscape:window-y="-8"
     inkscape:window-maximized="1"
     inkscape:snap-bbox="true"
     inkscape:snap-bbox-midpoints="true"
     inkscape:bbox-paths="true">
    <sodipodi:guide
       orientation="1,0"
       position="-87.142857,675"
       id="guide3042" />
    <sodipodi:guide
       orientation="1,0"
       position="382.5,708.11693"
       id="guide3044" />
    <sodipodi:guide
       orientation="1,0"
       position="721.24892,720"
       id="guide3046" />
    <sodipodi:guide
       orientation="1,0"
       position="247.5,686.90373"
       id="guide3048" />
    <sodipodi:guide
       orientation="1,0"
       position="517.5,645.48748"
       id="guide3050" />
    <sodipodi:guide
       orientation="0,1"
       position="408.57143,832.5"
       id="guide3052" />
    <sodipodi:guide
       orientation="0,1"
       position="347.49248,720"
       id="guide3054" />
    <sodipodi:guide
       orientation="0,1"
       position="450,607.5"
       id="guide3056" />
  </sodipodi:namedview>
  <metadata
     id="metadata7">
    <rdf:RDF>
      <cc:Work
         rdf:about="">
        <dc:format>image/svg+xml</dc:format>
        <dc:type
           rdf:resource="http://purl.org/dc/dcmitype/StillImage" />
        <dc:title></dc:title>
      </cc:Work>
    </rdf:RDF>
  </metadata>
  <g
     inkscape:groupmode="layer"
     id="layer2"
     inkscape:label="reference"
     style="display:inline">
    <rect
       style="fill:#ffffff;fill-opacity:1;fill-rule:nonzero;stroke:#000000;stroke-width:0.09;stroke-linecap:round;stroke-linejoin:miter;stroke-miterlimit:4;stroke-opacity:1;stroke-dasharray:none;display:inline"
       id="rect4025"
       width="388.79999"
       height="299.70001"
       x="188.10001"
       y="120.14999"
       ry="0" />
    <path
       sodipodi:type="arc"
       style="fill:#ffffff;fill-opacity:1;fill-rule:nonzero;stroke:#000000;stroke-width:1.98231494;stroke-linecap:round;stroke-linejoin:miter;stroke-miterlimit:4;stroke-opacity:1;stroke-dasharray:none;display:inline"
       id="path2985-76"
       sodipodi:cx="163.57143"
       sodipodi:cy="358.79074"
       sodipodi:rx="46.42857"
       sodipodi:ry="93.571426"
       d="M 210,358.79074 A 46.42857,93.571426 0 1 1 117.14286,358.79074 46.42857,93.571426 0 1 1 210,358.79074 z"
       transform="matrix(0.71615387,0,0,0.35534352,130.35769,255.00605)" />
    <path
       sodipodi:type="arc"
       style="fill:#ffffff;fill-opacity:1;fill-rule:nonzero;stroke:#000000;stroke-width:1.98231494;stroke-linecap:round;stroke-linejoin:miter;stroke-miterlimit:4;stroke-opacity:1;stroke-dasharray:none;display:inline"
       id="path2985"
       sodipodi:cx="163.57143"
       sodipodi:cy="358.79074"
       sodipodi:rx="46.42857"
       sodipodi:ry="93.571426"
       d="M 210,358.79074 A 46.42857,93.571426 0 1 1 117.14286,358.79074 46.42857,93.571426 0 1 1 210,358.79074 z"
       transform="matrix(0.71615387,0,0,0.35534352,130.35769,142.50604)" />
    <path
       sodipodi:type="arc"
       style="fill:#ffffff;fill-opacity:1;fill-rule:nonzero;stroke:#000000;stroke-width:1.98231494;stroke-linecap:round;stroke-linejoin:miter;stroke-miterlimit:4;stroke-opacity:1;stroke-dasharray:none;display:inline"
       id="path2985-8"
       sodipodi:cx="163.57143"
       sodipodi:cy="358.79074"
       sodipodi:rx="46.42857"
       sodipodi:ry="93.571426"
       d="M 210,358.79074 A 46.42857,93.571426 0 1 1 117.14286,358.79074 46.42857,93.571426 0 1 1 210,358.79074 z"
       transform="matrix(0.71615387,0,0,0.35534352,130.35769,30.006025)" />
    <path
       sodipodi:type="arc"
       style="fill:#ffffff;fill-opacity:1;fill-rule:nonzero;stroke:#000000;stroke-width:1.98231494;stroke-linecap:round;stroke-linejoin:miter;stroke-miterlimit:4;stroke-opacity:1;stroke-dasharray:none;display:inline"
       id="path2985-5"
       sodipodi:cx="163.57143"
       sodipodi:cy="358.79074"
       sodipodi:rx="46.42857"
       sodipodi:ry="93.571426"
       d="M 210,358.79074 A 46.42857,93.571426 0 1 1 117.14286,358.79074 46.42857,93.571426 0 1 1 210,358.79074 z"
       transform="matrix(0.71615387,0,0,0.35534352,265.35769,30.006035)" />
    <path
       sodipodi:type="arc"
       style="fill:#ffffff;fill-opacity:1;fill-rule:nonzero;stroke:#000000;stroke-width:1.98231494;stroke-linecap:round;stroke-linejoin:miter;stroke-miterlimit:4;stroke-opacity:1;stroke-dasharray:none;display:inline"
       id="path2985-7"
       sodipodi:cx="163.57143"
       sodipodi:cy="358.79074"
       sodipodi:rx="46.42857"
       sodipodi:ry="93.571426"
       d="M 210,358.79074 A 46.42857,93.571426 0 1 1 117.14286,358.79074 46.42857,93.571426 0 1 1 210,358.79074 z"
       transform="matrix(0.71615387,0,0,0.35534352,265.35769,142.50604)" />
    <path
       sodipodi:type="arc"
       style="fill:#ffffff;fill-opacity:1;fill-rule:nonzero;stroke:#000000;stroke-width:1.98231494;stroke-linecap:round;stroke-linejoin:miter;stroke-miterlimit:4;stroke-opacity:1;stroke-dasharray:none;display:inline"
       id="path2985-4"
       sodipodi:cx="163.57143"
       sodipodi:cy="358.79074"
       sodipodi:rx="46.42857"
       sodipodi:ry="93.571426"
       d="M 210,358.79074 A 46.42857,93.571426 0 1 1 117.14286,358.79074 46.42857,93.571426 0 1 1 210,358.79074 z"
       transform="matrix(0.71615387,0,0,0.35534352,400.35769,30.006025)" />
    <path
       sodipodi:type="arc"
       style="fill:#ffffff;fill-opacity:1;fill-rule:nonzero;stroke:#000000;stroke-width:1.98231494;stroke-linecap:round;stroke-linejoin:miter;stroke-miterlimit:4;stroke-opacity:1;stroke-dasharray:none;display:inline"
       id="path2985-16"
       sodipodi:cx="163.57143"
       sodipodi:cy="358.79074"
       sodipodi:rx="46.42857"
       sodipodi:ry="93.571426"
       d="M 210,358.79074 A 46.42857,93.571426 0 1 1 117.14286,358.79074 46.42857,93.571426 0 1 1 210,358.79074 z"
       transform="matrix(0.71615387,0,0,0.35534352,400.35769,142.50605)" />
    <path
       sodipodi:type="arc"
       style="fill:#ffffff;fill-opacity:1;fill-rule:nonzero;stroke:#000000;stroke-width:1.98231494;stroke-linecap:round;stroke-linejoin:miter;stroke-miterlimit:4;stroke-opacity:1;stroke-dasharray:none;display:inline"
       id="path2985-2"
       sodipodi:cx="163.57143"
       sodipodi:cy="358.79074"
       sodipodi:rx="46.42857"
       sodipodi:ry="93.571426"
       d="M 210,358.79074 A 46.42857,93.571426 0 1 1 117.14286,358.79074 46.42857,93.571426 0 1 1 210,358.79074 z"
       transform="matrix(0.71615387,0,0,0.35534352,400.35769,255.00605)" />
    <path
       sodipodi:type="arc"
       style="fill:#ffffff;fill-opacity:1;fill-rule:nonzero;stroke:#000000;stroke-width:1.98231494;stroke-linecap:round;stroke-linejoin:miter;stroke-miterlimit:4;stroke-opacity:1;stroke-dasharray:none;display:inline"
       id="path2985-43"
       sodipodi:cx="163.57143"
       sodipodi:cy="358.79074"
       sodipodi:rx="46.42857"
       sodipodi:ry="93.571426"
       d="M 210,358.79074 A 46.42857,93.571426 0 1 1 117.14286,358.79074 46.42857,93.571426 0 1 1 210,358.79074 z"
       transform="matrix(0.71615387,0,0,0.35534352,265.35769,255.00605)" />
  </g>
  <g
     inkscape:label="print-me"
     inkscape:groupmode="layer"
     id="layer1"
     transform="translate(0,-62.362183)"
     style="display:inline">
    <path
       sodipodi:type="arc"
       style="fill:none;stroke:#000000;stroke-width:0.49954334;stroke-linecap:round;stroke-linejoin:miter;stroke-miterlimit:4;stroke-opacity:1;stroke-dasharray:none"
       id="path2985-1"
       sodipodi:cx="163.57143"
       sodipodi:cy="358.79074"
       sodipodi:rx="46.42857"
       sodipodi:ry="93.571426"
       d="M 210,358.79074 A 46.42857,93.571426 0 1 1 117.14286,358.79074 46.42857,93.571426 0 1 1 210,358.79074 z"
       transform="matrix(0.25576924,0,0,0.1269084,205.66346,286.82862)" />
    <path
       sodipodi:type="arc"
       style="fill:none;stroke:#000000;stroke-width:0.49954334;stroke-linecap:round;stroke-linejoin:miter;stroke-miterlimit:4;stroke-opacity:1;stroke-dasharray:none"
       id="path2985-1-2"
       sodipodi:cx="163.57143"
       sodipodi:cy="358.79074"
       sodipodi:rx="46.42857"
       sodipodi:ry="93.571426"
       d="M 210,358.79074 A 46.42857,93.571426 0 1 1 117.14286,358.79074 46.42857,93.571426 0 1 1 210,358.79074 z"
       transform="matrix(0.25576924,0,0,0.1269084,205.66346,174.32862)" />
    <path
       sodipodi:type="arc"
       style="fill:none;stroke:#000000;stroke-width:0.49954334;stroke-linecap:round;stroke-linejoin:miter;stroke-miterlimit:4;stroke-opacity:1;stroke-dasharray:none"
       id="path2985-1-1"
       sodipodi:cx="163.57143"
       sodipodi:cy="358.79074"
       sodipodi:rx="46.42857"
       sodipodi:ry="93.571426"
       d="M 210,358.79074 A 46.42857,93.571426 0 1 1 117.14286,358.79074 46.42857,93.571426 0 1 1 210,358.79074 z"
       transform="matrix(0.25576924,0,0,0.1269084,340.66346,174.32863)" />
    <path
       sodipodi:type="arc"
       style="fill:none;stroke:#000000;stroke-width:0.49954334;stroke-linecap:round;stroke-linejoin:miter;stroke-miterlimit:4;stroke-opacity:1;stroke-dasharray:none"
       id="path2985-1-6"
       sodipodi:cx="163.57143"
       sodipodi:cy="358.79074"
       sodipodi:rx="46.42857"
       sodipodi:ry="93.571426"
       d="M 210,358.79074 A 46.42857,93.571426 0 1 1 117.14286,358.79074 46.42857,93.571426 0 1 1 210,358.79074 z"
       transform="matrix(0.25576924,0,0,0.1269084,340.66346,286.82862)" />
    <path
       sodipodi:type="arc"
       style="fill:none;stroke:#000000;stroke-width:0.49954334;stroke-linecap:round;stroke-linejoin:miter;stroke-miterlimit:4;stroke-opacity:1;stroke-dasharray:none"
       id="path2985-1-23"
       sodipodi:cx="163.57143"
       sodipodi:cy="358.79074"
       sodipodi:rx="46.42857"
       sodipodi:ry="93.571426"
       d="M 210,358.79074 A 46.42857,93.571426 0 1 1 117.14286,358.79074 46.42857,93.571426 0 1 1 210,358.79074 z"
       transform="matrix(0.25576924,0,0,0.1269084,475.66346,174.32862)" />
    <path
       sodipodi:type="arc"
       style="fill:none;stroke:#000000;stroke-width:0.49954334;stroke-linecap:round;stroke-linejoin:miter;stroke-miterlimit:4;stroke-opacity:1;stroke-dasharray:none"
       id="path2985-1-8"
       sodipodi:cx="163.57143"
       sodipodi:cy="358.79074"
       sodipodi:rx="46.42857"
       sodipodi:ry="93.571426"
       d="M 210,358.79074 A 46.42857,93.571426 0 1 1 117.14286,358.79074 46.42857,93.571426 0 1 1 210,358.79074 z"
       transform="matrix(0.25576924,0,0,0.1269084,475.66346,286.82863)" />
    <path
       sodipodi:type="arc"
       style="fill:none;stroke:#000000;stroke-width:0.49954334;stroke-linecap:round;stroke-linejoin:miter;stroke-miterlimit:4;stroke-opacity:1;stroke-dasharray:none"
       id="path2985-1-18"
       sodipodi:cx="163.57143"
       sodipodi:cy="358.79074"
       sodipodi:rx="46.42857"
       sodipodi:ry="93.571426"
       d="M 210,358.79074 A 46.42857,93.571426 0 1 1 117.14286,358.79074 46.42857,93.571426 0 1 1 210,358.79074 z"
       transform="matrix(0.25576924,0,0,0.1269084,205.66346,399.32862)" />
    <path
       sodipodi:type="arc"
       style="fill:none;stroke:#000000;stroke-width:0.49954334;stroke-linecap:round;stroke-linejoin:miter;stroke-miterlimit:4;stroke-opacity:1;stroke-dasharray:none"
       id="path2985-1-7"
       sodipodi:cx="163.57143"
       sodipodi:cy="358.79074"
       sodipodi:rx="46.42857"
       sodipodi:ry="93.571426"
       d="M 210,358.79074 A 46.42857,93.571426 0 1 1 117.14286,358.79074 46.42857,93.571426 0 1 1 210,358.79074 z"
       transform="matrix(0.25576924,0,0,0.1269084,475.66346,399.32863)" />
    <path
       sodipodi:type="arc"
       style="fill:none;stroke:#000000;stroke-width:0.49954334;stroke-linecap:round;stroke-linejoin:miter;stroke-miterlimit:4;stroke-opacity:1;stroke-dasharray:none"
       id="path2985-1-12"
       sodipodi:cx="163.57143"
       sodipodi:cy="358.79074"
       sodipodi:rx="46.42857"
       sodipodi:ry="93.571426"
       d="M 210,358.79074 A 46.42857,93.571426 0 1 1 117.14286,358.79074 46.42857,93.571426 0 1 1 210,358.79074 z"
       transform="matrix(0.25576924,0,0,0.1269084,340.66346,399.32863)" />
    <path
       sodipodi:type="arc"
       style="fill:#ffffff;fill-opacity:1;fill-rule:nonzero;stroke:#000000;stroke-width:0.13170625;stroke-linecap:round;stroke-linejoin:miter;stroke-miterlimit:4;stroke-opacity:1;stroke-dasharray:none"
       id="path4045"
       sodipodi:cx="113.13708"
       sodipodi:cy="596.04053"
       sodipodi:rx="11.111678"
       sodipodi:ry="11.111678"
       d="M 124.24876,596.04053 A 11.111678,11.111678 0 1 1 102.0254,596.04053 11.111678,11.111678 0 1 1 124.24876,596.04053 z"
       transform="matrix(0.68333887,0,0,0.68333887,110.72654,74.977029)" />
    <path
       sodipodi:type="arc"
       style="fill:#ffffff;fill-opacity:1;fill-rule:nonzero;stroke:#000000;stroke-width:0.13170625;stroke-linecap:round;stroke-linejoin:miter;stroke-miterlimit:4;stroke-opacity:1;stroke-dasharray:none;display:inline"
       id="path4045-3"
       sodipodi:cx="113.13708"
       sodipodi:cy="596.04053"
       sodipodi:rx="11.111678"
       sodipodi:ry="11.111678"
       d="M 124.24876,596.04053 A 11.111678,11.111678 0 1 1 102.0254,596.04053 11.111678,11.111678 0 1 1 124.24876,596.04053 z"
       transform="matrix(0.68333887,0,0,0.68333887,499.65153,74.977029)" />
    <path
       sodipodi:type="arc"
       style="fill:#ffffff;fill-opacity:1;fill-rule:nonzero;stroke:#000000;stroke-width:0.13170625;stroke-linecap:round;stroke-linejoin:miter;stroke-miterlimit:4;stroke-opacity:1;stroke-dasharray:none;display:inline"
       id="path4045-34"
       sodipodi:cx="113.13708"
       sodipodi:cy="596.04053"
       sodipodi:rx="11.111678"
       sodipodi:ry="11.111678"
       d="M 124.24876,596.04053 A 11.111678,11.111678 0 1 1 102.0254,596.04053 11.111678,11.111678 0 1 1 124.24876,596.04053 z"
       transform="matrix(0.68333887,0,0,0.68333887,499.65153,-224.84798)" />
    <path
       sodipodi:type="arc"
       style="fill:#ffffff;fill-opacity:1;fill-rule:nonzero;stroke:#000000;stroke-width:0.13170625;stroke-linecap:round;stroke-linejoin:miter;stroke-miterlimit:4;stroke-opacity:1;stroke-dasharray:none;display:inline"
       id="path4045-1"
       sodipodi:cx="113.13708"
       sodipodi:cy="596.04053"
       sodipodi:rx="11.111678"
       sodipodi:ry="11.111678"
       d="M 124.24876,596.04053 A 11.111678,11.111678 0 1 1 102.0254,596.04053 11.111678,11.111678 0 1 1 124.24876,596.04053 z"
       transform="matrix(0.68333887,0,0,0.68333887,110.72654,-224.84798)" />
    <rect
       style="fill:none;stroke:#000000;stroke-width:0.09;stroke-linecap:round;stroke-linejoin:miter;stroke-miterlimit:4;stroke-opacity:1;stroke-dasharray:none;display:inline"
       id="rect3164"
       width="422.89999"
       height="335.60001"
       x="172.40797"
       y="167.35387"
       ry="16.793787"
       rx="16.793787" />
  </g>
</svg>
