<?xml version="1.0" encoding="UTF-8" standalone="no"?>
<!-- Created with Inkscape (http://www.inkscape.org/) -->

<svg
   xmlns:dc="http://purl.org/dc/elements/1.1/"
   xmlns:cc="http://creativecommons.org/ns#"
   xmlns:rdf="http://www.w3.org/1999/02/22-rdf-syntax-ns#"
   xmlns:svg="http://www.w3.org/2000/svg"
   xmlns="http://www.w3.org/2000/svg"
   xmlns:sodipodi="http://sodipodi.sourceforge.net/DTD/sodipodi-0.dtd"
   xmlns:inkscape="http://www.inkscape.org/namespaces/inkscape"
   width="2160"
   height="1620"
   id="svg2"
   version="1.1"
   inkscape:version="0.48.4 r9939"
   sodipodi:docname="panel-2.pdf">
  <defs
     id="defs4" />
  <sodipodi:namedview
     id="base"
     pagecolor="#ffffff"
     bordercolor="#666666"
     borderopacity="1.0"
     inkscape:pageopacity="0.0"
     inkscape:pageshadow="2"
     inkscape:zoom="0.98994949"
     inkscape:cx="603.82338"
     inkscape:cy="806.97898"
     inkscape:document-units="in"
     inkscape:current-layer="layer2"
     showgrid="false"
     showguides="false"
     inkscape:guide-bbox="true"
     inkscape:snap-global="true"
     inkscape:snap-object-midpoints="true"
     inkscape:window-width="1920"
     inkscape:window-height="1058"
     inkscape:window-x="1912"
     inkscape:window-y="-8"
     inkscape:window-maximized="1"
     inkscape:snap-bbox="true"
     inkscape:snap-bbox-midpoints="true"
     inkscape:bbox-paths="true"
     units="in"
     inkscape:snap-center="false">
    <sodipodi:guide
       orientation="1,0"
       position="697.5,675"
       id="guide3042" />
    <sodipodi:guide
       orientation="1,0"
       position="360,708.11693"
       id="guide3044" />
    <sodipodi:guide
       orientation="1,0"
       position="585,720"
       id="guide3046" />
    <sodipodi:guide
       orientation="1,0"
       position="247.5,686.90373"
       id="guide3048" />
    <sodipodi:guide
       orientation="1,0"
       position="472.5,645.48748"
       id="guide3050" />
    <sodipodi:guide
       orientation="0,1"
       position="347.49248,776.25"
       id="guide3054" />
    <sodipodi:guide
       orientation="0,1"
       position="450.52804,641.25"
       id="guide3056" />
    <sodipodi:guide
       orientation="1,0"
       position="810,877.49981"
       id="guide3070" />
    <sodipodi:guide
       orientation="1,0"
       position="922.5,1228.3455"
       id="guide3072" />
    <sodipodi:guide
       orientation="1,0"
       position="112.5,938.57143"
       id="guide3074" />
    <sodipodi:guide
       orientation="0,1"
       position="1237.1429,585"
       id="guide3416" />
    <sodipodi:guide
       orientation="0,1"
       position="1275.7143,832.5"
       id="guide3418" />
    <sodipodi:guide
       orientation="0,1"
       position="1240,708.75"
       id="guide3420" />
    <sodipodi:guide
       orientation="1,0"
       position="1057.5,1078.5714"
       id="guide3422" />
    <sodipodi:guide
       orientation="0,1"
       position="281.25,749.52"
       id="guide3460" />
  </sodipodi:namedview>
  <metadata
     id="metadata7">
    <rdf:RDF>
      <cc:Work
         rdf:about="">
        <dc:format>image/svg+xml</dc:format>
        <dc:type
           rdf:resource="http://purl.org/dc/dcmitype/StillImage" />
        <dc:title></dc:title>
      </cc:Work>
    </rdf:RDF>
  </metadata>
  <g
     inkscape:groupmode="layer"
     id="layer2"
     inkscape:label="reference"
     style="display:none"
     transform="translate(0,630)">
    <path
       sodipodi:type="arc"
       style="fill:#ffffff;fill-opacity:1;fill-rule:nonzero;stroke:#000000;stroke-width:1.98231494;stroke-linecap:round;stroke-linejoin:miter;stroke-miterlimit:4;stroke-opacity:1;stroke-dasharray:none;display:inline"
       id="path2985-8"
       sodipodi:cx="163.57143"
       sodipodi:cy="358.79074"
       sodipodi:rx="46.42857"
       sodipodi:ry="93.571426"
       d="M 210,358.79074 A 46.42857,93.571426 0 1 1 117.14286,358.79074 46.42857,93.571426 0 1 1 210,358.79074 z"
       transform="matrix(0.71615387,0,0,0.35534352,130.35769,86.256035)" />
    <path
       sodipodi:type="arc"
       style="fill:#ffffff;fill-opacity:1;fill-rule:nonzero;stroke:#000000;stroke-width:1.98231494;stroke-linecap:round;stroke-linejoin:miter;stroke-miterlimit:4;stroke-opacity:1;stroke-dasharray:none;display:inline"
       id="path2985-8-1"
       sodipodi:cx="163.57143"
       sodipodi:cy="358.79074"
       sodipodi:rx="46.42857"
       sodipodi:ry="93.571426"
       d="M 210,358.79074 A 46.42857,93.571426 0 1 1 117.14286,358.79074 46.42857,93.571426 0 1 1 210,358.79074 z"
       transform="matrix(0.71615387,0,0,0.35534352,242.85769,86.256055)" />
    <path
       sodipodi:type="arc"
       style="fill:#ffffff;fill-opacity:1;fill-rule:nonzero;stroke:#000000;stroke-width:1.98231494;stroke-linecap:round;stroke-linejoin:miter;stroke-miterlimit:4;stroke-opacity:1;stroke-dasharray:none;display:inline"
       id="path2985-8-7"
       sodipodi:cx="163.57143"
       sodipodi:cy="358.79074"
       sodipodi:rx="46.42857"
       sodipodi:ry="93.571426"
       d="M 210,358.79074 A 46.42857,93.571426 0 1 1 117.14286,358.79074 46.42857,93.571426 0 1 1 210,358.79074 z"
       transform="matrix(0.71615387,0,0,0.35534352,355.35769,86.256055)" />
    <path
       sodipodi:type="arc"
       style="fill:#ffffff;fill-opacity:1;fill-rule:nonzero;stroke:#000000;stroke-width:1.98231494;stroke-linecap:round;stroke-linejoin:miter;stroke-miterlimit:4;stroke-opacity:1;stroke-dasharray:none;display:inline"
       id="path2985-8-9"
       sodipodi:cx="163.57143"
       sodipodi:cy="358.79074"
       sodipodi:rx="46.42857"
       sodipodi:ry="93.571426"
       d="M 210,358.79074 A 46.42857,93.571426 0 1 1 117.14286,358.79074 46.42857,93.571426 0 1 1 210,358.79074 z"
       transform="matrix(0.71615387,0,0,0.35534352,467.85769,86.256035)" />
    <path
       sodipodi:type="arc"
       style="fill:#ffffff;fill-opacity:1;fill-rule:nonzero;stroke:#000000;stroke-width:1.98231494;stroke-linecap:round;stroke-linejoin:miter;stroke-miterlimit:4;stroke-opacity:1;stroke-dasharray:none;display:inline"
       id="path2985-8-12"
       sodipodi:cx="163.57143"
       sodipodi:cy="358.79074"
       sodipodi:rx="46.42857"
       sodipodi:ry="93.571426"
       d="M 210,358.79074 A 46.42857,93.571426 0 1 1 117.14286,358.79074 46.42857,93.571426 0 1 1 210,358.79074 z"
       transform="matrix(0.71615387,0,0,0.35534352,580.35769,86.256055)" />
    <path
       sodipodi:type="arc"
       style="fill:#ffffff;fill-opacity:1;fill-rule:nonzero;stroke:#000000;stroke-width:1.98231494;stroke-linecap:round;stroke-linejoin:miter;stroke-miterlimit:4;stroke-opacity:1;stroke-dasharray:none;display:inline"
       id="path2985-8-11"
       sodipodi:cx="163.57143"
       sodipodi:cy="358.79074"
       sodipodi:rx="46.42857"
       sodipodi:ry="93.571426"
       d="M 210,358.79074 A 46.42857,93.571426 0 1 1 117.14286,358.79074 46.42857,93.571426 0 1 1 210,358.79074 z"
       transform="matrix(0.71615387,0,0,0.35534352,692.85769,86.256055)" />
    <path
       sodipodi:type="arc"
       style="fill:#ffffff;fill-opacity:1;fill-rule:nonzero;stroke:#000000;stroke-width:1.98231494;stroke-linecap:round;stroke-linejoin:miter;stroke-miterlimit:4;stroke-opacity:1;stroke-dasharray:none;display:inline"
       id="path2985-8-77"
       sodipodi:cx="163.57143"
       sodipodi:cy="358.79074"
       sodipodi:rx="46.42857"
       sodipodi:ry="93.571426"
       d="M 210,358.79074 A 46.42857,93.571426 0 1 1 117.14286,358.79074 46.42857,93.571426 0 1 1 210,358.79074 z"
       transform="matrix(0.71615387,0,0,0.35534352,805.35769,86.256055)" />
    <path
       sodipodi:type="arc"
       style="fill:#ffffff;fill-opacity:1;fill-rule:nonzero;stroke:#000000;stroke-width:1.98231494;stroke-linecap:round;stroke-linejoin:miter;stroke-miterlimit:4;stroke-opacity:1;stroke-dasharray:none;display:inline"
       id="path2985-8-8"
       sodipodi:cx="163.57143"
       sodipodi:cy="358.79074"
       sodipodi:rx="46.42857"
       sodipodi:ry="93.571426"
       d="M 210,358.79074 A 46.42857,93.571426 0 1 1 117.14286,358.79074 46.42857,93.571426 0 1 1 210,358.79074 z"
       transform="matrix(0.71615387,0,0,0.35534352,130.35769,221.25604)" />
    <path
       sodipodi:type="arc"
       style="fill:#ffffff;fill-opacity:1;fill-rule:nonzero;stroke:#000000;stroke-width:1.98231494;stroke-linecap:round;stroke-linejoin:miter;stroke-miterlimit:4;stroke-opacity:1;stroke-dasharray:none;display:inline"
       id="path2985-8-1-2"
       sodipodi:cx="163.57143"
       sodipodi:cy="358.79074"
       sodipodi:rx="46.42857"
       sodipodi:ry="93.571426"
       d="M 210,358.79074 A 46.42857,93.571426 0 1 1 117.14286,358.79074 46.42857,93.571426 0 1 1 210,358.79074 z"
       transform="matrix(0.71615387,0,0,0.35534352,242.85769,221.25606)" />
    <path
       sodipodi:type="arc"
       style="fill:#ffffff;fill-opacity:1;fill-rule:nonzero;stroke:#000000;stroke-width:1.98231494;stroke-linecap:round;stroke-linejoin:miter;stroke-miterlimit:4;stroke-opacity:1;stroke-dasharray:none;display:inline"
       id="path2985-8-7-9"
       sodipodi:cx="163.57143"
       sodipodi:cy="358.79074"
       sodipodi:rx="46.42857"
       sodipodi:ry="93.571426"
       d="M 210,358.79074 A 46.42857,93.571426 0 1 1 117.14286,358.79074 46.42857,93.571426 0 1 1 210,358.79074 z"
       transform="matrix(0.71615387,0,0,0.35534352,355.35769,221.25606)" />
    <path
       sodipodi:type="arc"
       style="fill:#ffffff;fill-opacity:1;fill-rule:nonzero;stroke:#000000;stroke-width:1.98231494;stroke-linecap:round;stroke-linejoin:miter;stroke-miterlimit:4;stroke-opacity:1;stroke-dasharray:none;display:inline"
       id="path2985-8-9-1"
       sodipodi:cx="163.57143"
       sodipodi:cy="358.79074"
       sodipodi:rx="46.42857"
       sodipodi:ry="93.571426"
       d="M 210,358.79074 A 46.42857,93.571426 0 1 1 117.14286,358.79074 46.42857,93.571426 0 1 1 210,358.79074 z"
       transform="matrix(0.71615387,0,0,0.35534352,467.85769,221.25604)" />
    <path
       sodipodi:type="arc"
       style="fill:#ffffff;fill-opacity:1;fill-rule:nonzero;stroke:#000000;stroke-width:1.98231494;stroke-linecap:round;stroke-linejoin:miter;stroke-miterlimit:4;stroke-opacity:1;stroke-dasharray:none;display:inline"
       id="path2985-8-12-3"
       sodipodi:cx="163.57143"
       sodipodi:cy="358.79074"
       sodipodi:rx="46.42857"
       sodipodi:ry="93.571426"
       d="M 210,358.79074 A 46.42857,93.571426 0 1 1 117.14286,358.79074 46.42857,93.571426 0 1 1 210,358.79074 z"
       transform="matrix(0.71615387,0,0,0.35534352,580.35769,221.25606)" />
    <path
       sodipodi:type="arc"
       style="fill:#ffffff;fill-opacity:1;fill-rule:nonzero;stroke:#000000;stroke-width:1.98231494;stroke-linecap:round;stroke-linejoin:miter;stroke-miterlimit:4;stroke-opacity:1;stroke-dasharray:none;display:inline"
       id="path2985-8-11-5"
       sodipodi:cx="163.57143"
       sodipodi:cy="358.79074"
       sodipodi:rx="46.42857"
       sodipodi:ry="93.571426"
       d="M 210,358.79074 A 46.42857,93.571426 0 1 1 117.14286,358.79074 46.42857,93.571426 0 1 1 210,358.79074 z"
       transform="matrix(0.71615387,0,0,0.35534352,692.85769,221.25606)" />
    <path
       sodipodi:type="arc"
       style="fill:#ffffff;fill-opacity:1;fill-rule:nonzero;stroke:#000000;stroke-width:1.98231494;stroke-linecap:round;stroke-linejoin:miter;stroke-miterlimit:4;stroke-opacity:1;stroke-dasharray:none;display:inline"
       id="path2985-8-77-9"
       sodipodi:cx="163.57143"
       sodipodi:cy="358.79074"
       sodipodi:rx="46.42857"
       sodipodi:ry="93.571426"
       d="M 210,358.79074 A 46.42857,93.571426 0 1 1 117.14286,358.79074 46.42857,93.571426 0 1 1 210,358.79074 z"
       transform="matrix(0.71615387,0,0,0.35534352,805.35769,221.25606)" />
  </g>
  <g
     inkscape:label="print-me"
     inkscape:groupmode="layer"
     id="layer1"
     transform="translate(0,567.63782)"
     style="display:inline">
    <path
       sodipodi:type="arc"
       style="fill:#ffffff;fill-opacity:1;fill-rule:nonzero;stroke:#000000;stroke-width:0.13170625;stroke-linecap:round;stroke-linejoin:miter;stroke-miterlimit:4;stroke-opacity:1;stroke-dasharray:none"
       id="path4045"
       sodipodi:cx="113.13708"
       sodipodi:cy="596.04053"
       sodipodi:rx="11.111678"
       sodipodi:ry="11.111678"
       d="M 124.24876,596.04053 A 11.111678,11.111678 0 1 1 102.0254,596.04053 11.111678,11.111678 0 1 1 124.24876,596.04053 z"
       transform="matrix(0.68333887,0,0,0.68333887,35.189037,60.06452)" />
    <path
       sodipodi:type="arc"
       style="fill:#ffffff;fill-opacity:1;fill-rule:nonzero;stroke:#000000;stroke-width:0.13170625;stroke-linecap:round;stroke-linejoin:miter;stroke-miterlimit:4;stroke-opacity:1;stroke-dasharray:none;display:inline"
       id="path4045-3"
       sodipodi:cx="113.13708"
       sodipodi:cy="596.04053"
       sodipodi:rx="11.111678"
       sodipodi:ry="11.111678"
       d="M 124.24876,596.04053 A 11.111678,11.111678 0 1 1 102.0254,596.04053 11.111678,11.111678 0 1 1 124.24876,596.04053 z"
       transform="matrix(0.68333887,0,0,0.68333887,980.18904,60.06452)" />
    <path
       sodipodi:type="arc"
       style="fill:#ffffff;fill-opacity:1;fill-rule:nonzero;stroke:#000000;stroke-width:0.13170625;stroke-linecap:round;stroke-linejoin:miter;stroke-miterlimit:4;stroke-opacity:1;stroke-dasharray:none;display:inline"
       id="path4045-34"
       sodipodi:cx="113.13708"
       sodipodi:cy="596.04053"
       sodipodi:rx="11.111678"
       sodipodi:ry="11.111678"
       d="M 124.24876,596.04053 A 11.111678,11.111678 0 1 1 102.0254,596.04053 11.111678,11.111678 0 1 1 124.24876,596.04053 z"
       transform="matrix(0.68333887,0,0,0.68333887,980.18904,-187.43548)" />
    <path
       sodipodi:type="arc"
       style="fill:#ffffff;fill-opacity:1;fill-rule:nonzero;stroke:#000000;stroke-width:0.13170625;stroke-linecap:round;stroke-linejoin:miter;stroke-miterlimit:4;stroke-opacity:1;stroke-dasharray:none;display:inline"
       id="path4045-1"
       sodipodi:cx="113.13708"
       sodipodi:cy="596.04053"
       sodipodi:rx="11.111678"
       sodipodi:ry="11.111678"
       d="M 124.24876,596.04053 A 11.111678,11.111678 0 1 1 102.0254,596.04053 11.111678,11.111678 0 1 1 124.24876,596.04053 z"
       transform="matrix(0.68333887,0,0,0.68333887,35.189037,-187.43548)" />
    <rect
       style="fill:none;stroke:#000000;stroke-width:0.09000001;stroke-linecap:round;stroke-linejoin:miter;stroke-miterlimit:4;stroke-opacity:1;stroke-dasharray:none;display:inline"
       id="rect3164"
       width="989.87506"
       height="337.37482"
       x="90.062508"
       y="174.92487"
       ry="0"
       rx="0" />
    <path
       sodipodi:type="arc"
       style="fill:none;stroke:#000000;stroke-width:0.49954334;stroke-linecap:round;stroke-linejoin:miter;stroke-miterlimit:4;stroke-opacity:1;stroke-dasharray:none"
       id="path2985-1-2"
       sodipodi:cx="163.57143"
       sodipodi:cy="358.79074"
       sodipodi:rx="46.42857"
       sodipodi:ry="93.571426"
       d="M 210,358.79074 A 46.42857,93.571426 0 1 1 117.14286,358.79074 46.42857,93.571426 0 1 1 210,358.79074 z"
       transform="matrix(0.25576924,0,0,0.1269084,205.66346,230.57862)" />
    <path
       sodipodi:type="arc"
       style="fill:none;stroke:#000000;stroke-width:1.67111659;stroke-linecap:round;stroke-linejoin:miter;stroke-miterlimit:4;stroke-opacity:1;stroke-dasharray:none;display:inline"
       id="path2985-1-2-1"
       sodipodi:cx="163.57143"
       sodipodi:cy="358.79074"
       sodipodi:rx="46.42857"
       sodipodi:ry="93.571426"
       d="M 210,358.79074 A 46.42857,93.571426 0 1 1 117.14286,358.79074 46.42857,93.571426 0 1 1 210,358.79074 z"
       transform="matrix(0.07645656,0,0,0.03793646,234.99389,289.03866)" />
    <path
       sodipodi:type="arc"
       style="fill:none;stroke:#000000;stroke-width:0.49954334;stroke-linecap:round;stroke-linejoin:miter;stroke-miterlimit:4;stroke-opacity:1;stroke-dasharray:none"
       id="path2985-1-2-6"
       sodipodi:cx="163.57143"
       sodipodi:cy="358.79074"
       sodipodi:rx="46.42857"
       sodipodi:ry="93.571426"
       d="M 210,358.79074 A 46.42857,93.571426 0 1 1 117.14286,358.79074 46.42857,93.571426 0 1 1 210,358.79074 z"
       transform="matrix(0.25576924,0,0,0.1269084,318.16346,230.57863)" />
    <path
       sodipodi:type="arc"
       style="fill:none;stroke:#000000;stroke-width:1.67111659;stroke-linecap:round;stroke-linejoin:miter;stroke-miterlimit:4;stroke-opacity:1;stroke-dasharray:none;display:inline"
       id="path2985-1-2-1-8"
       sodipodi:cx="163.57143"
       sodipodi:cy="358.79074"
       sodipodi:rx="46.42857"
       sodipodi:ry="93.571426"
       d="M 210,358.79074 A 46.42857,93.571426 0 1 1 117.14286,358.79074 46.42857,93.571426 0 1 1 210,358.79074 z"
       transform="matrix(0.07645656,0,0,0.03793646,347.49389,289.03867)" />
    <path
       sodipodi:type="arc"
       style="fill:none;stroke:#000000;stroke-width:0.49954334;stroke-linecap:round;stroke-linejoin:miter;stroke-miterlimit:4;stroke-opacity:1;stroke-dasharray:none"
       id="path2985-1-2-61"
       sodipodi:cx="163.57143"
       sodipodi:cy="358.79074"
       sodipodi:rx="46.42857"
       sodipodi:ry="93.571426"
       d="M 210,358.79074 A 46.42857,93.571426 0 1 1 117.14286,358.79074 46.42857,93.571426 0 1 1 210,358.79074 z"
       transform="matrix(0.25576924,0,0,0.1269084,430.66346,230.57862)" />
    <path
       sodipodi:type="arc"
       style="fill:none;stroke:#000000;stroke-width:1.67111659;stroke-linecap:round;stroke-linejoin:miter;stroke-miterlimit:4;stroke-opacity:1;stroke-dasharray:none;display:inline"
       id="path2985-1-2-1-89"
       sodipodi:cx="163.57143"
       sodipodi:cy="358.79074"
       sodipodi:rx="46.42857"
       sodipodi:ry="93.571426"
       d="M 210,358.79074 A 46.42857,93.571426 0 1 1 117.14286,358.79074 46.42857,93.571426 0 1 1 210,358.79074 z"
       transform="matrix(0.07645656,0,0,0.03793646,459.99389,289.03866)" />
    <path
       sodipodi:type="arc"
       style="fill:none;stroke:#000000;stroke-width:0.49954334;stroke-linecap:round;stroke-linejoin:miter;stroke-miterlimit:4;stroke-opacity:1;stroke-dasharray:none"
       id="path2985-1-2-5"
       sodipodi:cx="163.57143"
       sodipodi:cy="358.79074"
       sodipodi:rx="46.42857"
       sodipodi:ry="93.571426"
       d="M 210,358.79074 A 46.42857,93.571426 0 1 1 117.14286,358.79074 46.42857,93.571426 0 1 1 210,358.79074 z"
       transform="matrix(0.25576924,0,0,0.1269084,543.16346,230.57862)" />
    <path
       sodipodi:type="arc"
       style="fill:none;stroke:#000000;stroke-width:1.67111659;stroke-linecap:round;stroke-linejoin:miter;stroke-miterlimit:4;stroke-opacity:1;stroke-dasharray:none;display:inline"
       id="path2985-1-2-1-4"
       sodipodi:cx="163.57143"
       sodipodi:cy="358.79074"
       sodipodi:rx="46.42857"
       sodipodi:ry="93.571426"
       d="M 210,358.79074 A 46.42857,93.571426 0 1 1 117.14286,358.79074 46.42857,93.571426 0 1 1 210,358.79074 z"
       transform="matrix(0.07645656,0,0,0.03793646,572.49389,289.03866)" />
    <path
       sodipodi:type="arc"
       style="fill:none;stroke:#000000;stroke-width:0.49954334;stroke-linecap:round;stroke-linejoin:miter;stroke-miterlimit:4;stroke-opacity:1;stroke-dasharray:none"
       id="path2985-1-2-3"
       sodipodi:cx="163.57143"
       sodipodi:cy="358.79074"
       sodipodi:rx="46.42857"
       sodipodi:ry="93.571426"
       d="M 210,358.79074 A 46.42857,93.571426 0 1 1 117.14286,358.79074 46.42857,93.571426 0 1 1 210,358.79074 z"
       transform="matrix(0.25576924,0,0,0.1269084,655.66346,230.57863)" />
    <path
       sodipodi:type="arc"
       style="fill:none;stroke:#000000;stroke-width:1.67111659;stroke-linecap:round;stroke-linejoin:miter;stroke-miterlimit:4;stroke-opacity:1;stroke-dasharray:none;display:inline"
       id="path2985-1-2-1-3"
       sodipodi:cx="163.57143"
       sodipodi:cy="358.79074"
       sodipodi:rx="46.42857"
       sodipodi:ry="93.571426"
       d="M 210,358.79074 A 46.42857,93.571426 0 1 1 117.14286,358.79074 46.42857,93.571426 0 1 1 210,358.79074 z"
       transform="matrix(0.07645656,0,0,0.03793646,684.99389,289.03867)" />
    <path
       sodipodi:type="arc"
       style="fill:none;stroke:#000000;stroke-width:0.49954334;stroke-linecap:round;stroke-linejoin:miter;stroke-miterlimit:4;stroke-opacity:1;stroke-dasharray:none"
       id="path2985-1-2-38"
       sodipodi:cx="163.57143"
       sodipodi:cy="358.79074"
       sodipodi:rx="46.42857"
       sodipodi:ry="93.571426"
       d="M 210,358.79074 A 46.42857,93.571426 0 1 1 117.14286,358.79074 46.42857,93.571426 0 1 1 210,358.79074 z"
       transform="matrix(0.25576924,0,0,0.1269084,768.16346,230.57862)" />
    <path
       sodipodi:type="arc"
       style="fill:none;stroke:#000000;stroke-width:1.67111659;stroke-linecap:round;stroke-linejoin:miter;stroke-miterlimit:4;stroke-opacity:1;stroke-dasharray:none;display:inline"
       id="path2985-1-2-1-7"
       sodipodi:cx="163.57143"
       sodipodi:cy="358.79074"
       sodipodi:rx="46.42857"
       sodipodi:ry="93.571426"
       d="M 210,358.79074 A 46.42857,93.571426 0 1 1 117.14286,358.79074 46.42857,93.571426 0 1 1 210,358.79074 z"
       transform="matrix(0.07645656,0,0,0.03793646,797.49389,289.03866)" />
    <path
       sodipodi:type="arc"
       style="fill:none;stroke:#000000;stroke-width:0.49954334;stroke-linecap:round;stroke-linejoin:miter;stroke-miterlimit:4;stroke-opacity:1;stroke-dasharray:none"
       id="path2985-1-2-9"
       sodipodi:cx="163.57143"
       sodipodi:cy="358.79074"
       sodipodi:rx="46.42857"
       sodipodi:ry="93.571426"
       d="M 210,358.79074 A 46.42857,93.571426 0 1 1 117.14286,358.79074 46.42857,93.571426 0 1 1 210,358.79074 z"
       transform="matrix(0.25576924,0,0,0.1269084,880.66346,230.57862)" />
    <path
       sodipodi:type="arc"
       style="fill:none;stroke:#000000;stroke-width:1.67111659;stroke-linecap:round;stroke-linejoin:miter;stroke-miterlimit:4;stroke-opacity:1;stroke-dasharray:none;display:inline"
       id="path2985-1-2-1-31"
       sodipodi:cx="163.57143"
       sodipodi:cy="358.79074"
       sodipodi:rx="46.42857"
       sodipodi:ry="93.571426"
       d="M 210,358.79074 A 46.42857,93.571426 0 1 1 117.14286,358.79074 46.42857,93.571426 0 1 1 210,358.79074 z"
       transform="matrix(0.07645656,0,0,0.03793646,909.99389,289.03866)" />
    <path
       sodipodi:type="arc"
       style="fill:none;stroke:#000000;stroke-width:0.49954334;stroke-linecap:round;stroke-linejoin:miter;stroke-miterlimit:4;stroke-opacity:1;stroke-dasharray:none"
       id="path2985-1-2-65"
       sodipodi:cx="163.57143"
       sodipodi:cy="358.79074"
       sodipodi:rx="46.42857"
       sodipodi:ry="93.571426"
       d="M 210,358.79074 A 46.42857,93.571426 0 1 1 117.14286,358.79074 46.42857,93.571426 0 1 1 210,358.79074 z"
       transform="matrix(0.25576924,0,0,0.1269084,205.66346,365.57862)" />
    <path
       sodipodi:type="arc"
       style="fill:none;stroke:#000000;stroke-width:1.67111659;stroke-linecap:round;stroke-linejoin:miter;stroke-miterlimit:4;stroke-opacity:1;stroke-dasharray:none;display:inline"
       id="path2985-1-2-1-0"
       sodipodi:cx="163.57143"
       sodipodi:cy="358.79074"
       sodipodi:rx="46.42857"
       sodipodi:ry="93.571426"
       d="M 210,358.79074 A 46.42857,93.571426 0 1 1 117.14286,358.79074 46.42857,93.571426 0 1 1 210,358.79074 z"
       transform="matrix(0.07645656,0,0,0.03793646,234.99389,424.03866)" />
    <path
       sodipodi:type="arc"
       style="fill:none;stroke:#000000;stroke-width:0.49954334;stroke-linecap:round;stroke-linejoin:miter;stroke-miterlimit:4;stroke-opacity:1;stroke-dasharray:none"
       id="path2985-1-2-6-6"
       sodipodi:cx="163.57143"
       sodipodi:cy="358.79074"
       sodipodi:rx="46.42857"
       sodipodi:ry="93.571426"
       d="M 210,358.79074 A 46.42857,93.571426 0 1 1 117.14286,358.79074 46.42857,93.571426 0 1 1 210,358.79074 z"
       transform="matrix(0.25576924,0,0,0.1269084,318.16346,365.57863)" />
    <path
       sodipodi:type="arc"
       style="fill:none;stroke:#000000;stroke-width:1.67111659;stroke-linecap:round;stroke-linejoin:miter;stroke-miterlimit:4;stroke-opacity:1;stroke-dasharray:none;display:inline"
       id="path2985-1-2-1-8-0"
       sodipodi:cx="163.57143"
       sodipodi:cy="358.79074"
       sodipodi:rx="46.42857"
       sodipodi:ry="93.571426"
       d="M 210,358.79074 A 46.42857,93.571426 0 1 1 117.14286,358.79074 46.42857,93.571426 0 1 1 210,358.79074 z"
       transform="matrix(0.07645656,0,0,0.03793646,347.49389,424.03867)" />
    <path
       sodipodi:type="arc"
       style="fill:none;stroke:#000000;stroke-width:0.49954334;stroke-linecap:round;stroke-linejoin:miter;stroke-miterlimit:4;stroke-opacity:1;stroke-dasharray:none"
       id="path2985-1-2-61-8"
       sodipodi:cx="163.57143"
       sodipodi:cy="358.79074"
       sodipodi:rx="46.42857"
       sodipodi:ry="93.571426"
       d="M 210,358.79074 A 46.42857,93.571426 0 1 1 117.14286,358.79074 46.42857,93.571426 0 1 1 210,358.79074 z"
       transform="matrix(0.25576924,0,0,0.1269084,430.66346,365.57863)" />
    <path
       sodipodi:type="arc"
       style="fill:none;stroke:#000000;stroke-width:1.67111659;stroke-linecap:round;stroke-linejoin:miter;stroke-miterlimit:4;stroke-opacity:1;stroke-dasharray:none;display:inline"
       id="path2985-1-2-1-89-6"
       sodipodi:cx="163.57143"
       sodipodi:cy="358.79074"
       sodipodi:rx="46.42857"
       sodipodi:ry="93.571426"
       d="M 210,358.79074 A 46.42857,93.571426 0 1 1 117.14286,358.79074 46.42857,93.571426 0 1 1 210,358.79074 z"
       transform="matrix(0.07645656,0,0,0.03793646,459.99389,424.03867)" />
    <path
       sodipodi:type="arc"
       style="fill:none;stroke:#000000;stroke-width:0.49954334;stroke-linecap:round;stroke-linejoin:miter;stroke-miterlimit:4;stroke-opacity:1;stroke-dasharray:none"
       id="path2985-1-2-5-9"
       sodipodi:cx="163.57143"
       sodipodi:cy="358.79074"
       sodipodi:rx="46.42857"
       sodipodi:ry="93.571426"
       d="M 210,358.79074 A 46.42857,93.571426 0 1 1 117.14286,358.79074 46.42857,93.571426 0 1 1 210,358.79074 z"
       transform="matrix(0.25576924,0,0,0.1269084,543.16346,365.57862)" />
    <path
       sodipodi:type="arc"
       style="fill:none;stroke:#000000;stroke-width:1.67111659;stroke-linecap:round;stroke-linejoin:miter;stroke-miterlimit:4;stroke-opacity:1;stroke-dasharray:none;display:inline"
       id="path2985-1-2-1-4-0"
       sodipodi:cx="163.57143"
       sodipodi:cy="358.79074"
       sodipodi:rx="46.42857"
       sodipodi:ry="93.571426"
       d="M 210,358.79074 A 46.42857,93.571426 0 1 1 117.14286,358.79074 46.42857,93.571426 0 1 1 210,358.79074 z"
       transform="matrix(0.07645656,0,0,0.03793646,572.49389,424.03866)" />
    <path
       sodipodi:type="arc"
       style="fill:none;stroke:#000000;stroke-width:0.49954334;stroke-linecap:round;stroke-linejoin:miter;stroke-miterlimit:4;stroke-opacity:1;stroke-dasharray:none"
       id="path2985-1-2-3-1"
       sodipodi:cx="163.57143"
       sodipodi:cy="358.79074"
       sodipodi:rx="46.42857"
       sodipodi:ry="93.571426"
       d="M 210,358.79074 A 46.42857,93.571426 0 1 1 117.14286,358.79074 46.42857,93.571426 0 1 1 210,358.79074 z"
       transform="matrix(0.25576924,0,0,0.1269084,655.66346,365.57863)" />
    <path
       sodipodi:type="arc"
       style="fill:none;stroke:#000000;stroke-width:1.67111659;stroke-linecap:round;stroke-linejoin:miter;stroke-miterlimit:4;stroke-opacity:1;stroke-dasharray:none;display:inline"
       id="path2985-1-2-1-3-3"
       sodipodi:cx="163.57143"
       sodipodi:cy="358.79074"
       sodipodi:rx="46.42857"
       sodipodi:ry="93.571426"
       d="M 210,358.79074 A 46.42857,93.571426 0 1 1 117.14286,358.79074 46.42857,93.571426 0 1 1 210,358.79074 z"
       transform="matrix(0.07645656,0,0,0.03793646,684.99389,424.03867)" />
    <path
       sodipodi:type="arc"
       style="fill:none;stroke:#000000;stroke-width:0.49954334;stroke-linecap:round;stroke-linejoin:miter;stroke-miterlimit:4;stroke-opacity:1;stroke-dasharray:none"
       id="path2985-1-2-38-3"
       sodipodi:cx="163.57143"
       sodipodi:cy="358.79074"
       sodipodi:rx="46.42857"
       sodipodi:ry="93.571426"
       d="M 210,358.79074 A 46.42857,93.571426 0 1 1 117.14286,358.79074 46.42857,93.571426 0 1 1 210,358.79074 z"
       transform="matrix(0.25576924,0,0,0.1269084,768.16346,365.57863)" />
    <path
       sodipodi:type="arc"
       style="fill:none;stroke:#000000;stroke-width:1.67111659;stroke-linecap:round;stroke-linejoin:miter;stroke-miterlimit:4;stroke-opacity:1;stroke-dasharray:none;display:inline"
       id="path2985-1-2-1-7-4"
       sodipodi:cx="163.57143"
       sodipodi:cy="358.79074"
       sodipodi:rx="46.42857"
       sodipodi:ry="93.571426"
       d="M 210,358.79074 A 46.42857,93.571426 0 1 1 117.14286,358.79074 46.42857,93.571426 0 1 1 210,358.79074 z"
       transform="matrix(0.07645656,0,0,0.03793646,797.49389,424.03867)" />
    <path
       sodipodi:type="arc"
       style="fill:none;stroke:#000000;stroke-width:0.49954334;stroke-linecap:round;stroke-linejoin:miter;stroke-miterlimit:4;stroke-opacity:1;stroke-dasharray:none"
       id="path2985-1-2-9-0"
       sodipodi:cx="163.57143"
       sodipodi:cy="358.79074"
       sodipodi:rx="46.42857"
       sodipodi:ry="93.571426"
       d="M 210,358.79074 A 46.42857,93.571426 0 1 1 117.14286,358.79074 46.42857,93.571426 0 1 1 210,358.79074 z"
       transform="matrix(0.25576924,0,0,0.1269084,880.66344,365.57863)" />
    <path
       sodipodi:type="arc"
       style="fill:none;stroke:#000000;stroke-width:1.67111659;stroke-linecap:round;stroke-linejoin:miter;stroke-miterlimit:4;stroke-opacity:1;stroke-dasharray:none;display:inline"
       id="path2985-1-2-1-31-6"
       sodipodi:cx="163.57143"
       sodipodi:cy="358.79074"
       sodipodi:rx="46.42857"
       sodipodi:ry="93.571426"
       d="M 210,358.79074 A 46.42857,93.571426 0 1 1 117.14286,358.79074 46.42857,93.571426 0 1 1 210,358.79074 z"
       transform="matrix(0.07645656,0,0,0.03793646,909.99387,424.03867)" />
    <path
       sodipodi:type="arc"
       style="fill:#ffffff;fill-opacity:1;fill-rule:nonzero;stroke:#000000;stroke-width:0.13170625;stroke-linecap:round;stroke-linejoin:miter;stroke-miterlimit:4;stroke-opacity:1;stroke-dasharray:none;display:inline"
       id="path4045-6"
       sodipodi:cx="113.13708"
       sodipodi:cy="596.04053"
       sodipodi:rx="11.111678"
       sodipodi:ry="11.111678"
       d="M 124.24876,596.04053 A 11.111678,11.111678 0 1 1 102.0254,596.04053 11.111678,11.111678 0 1 1 124.24876,596.04053 z"
       transform="matrix(0.68333887,0,0,0.68333887,35.189037,-63.68548)" />
    <path
       sodipodi:type="arc"
       style="fill:#ffffff;fill-opacity:1;fill-rule:nonzero;stroke:#000000;stroke-width:0.13170625;stroke-linecap:round;stroke-linejoin:miter;stroke-miterlimit:4;stroke-opacity:1;stroke-dasharray:none;display:inline"
       id="path4045-34-1"
       sodipodi:cx="113.13708"
       sodipodi:cy="596.04053"
       sodipodi:rx="11.111678"
       sodipodi:ry="11.111678"
       d="M 124.24876,596.04053 A 11.111678,11.111678 0 1 1 102.0254,596.04053 11.111678,11.111678 0 1 1 124.24876,596.04053 z"
       transform="matrix(0.68333887,0,0,0.68333887,980.18904,-63.68548)" />
  </g>
</svg>
