<?xml version="1.0" encoding="UTF-8" standalone="no"?>
<svg
   xmlns:dc="http://purl.org/dc/elements/1.1/"
   xmlns:cc="http://creativecommons.org/ns#"
   xmlns:rdf="http://www.w3.org/1999/02/22-rdf-syntax-ns#"
   xmlns:svg="http://www.w3.org/2000/svg"
   xmlns="http://www.w3.org/2000/svg"
   xmlns:sodipodi="http://sodipodi.sourceforge.net/DTD/sodipodi-0.dtd"
   xmlns:inkscape="http://www.inkscape.org/namespaces/inkscape"
   version="1.1"
   width="540.00922"
   height="337.51059"
   viewBox="-2.252131 -44.577 152.40262 95.252986"
   id="svg2"
   inkscape:version="0.48.4 r9939"
   sodipodi:docname="teensy-boom-jr_brd.svg">
  <metadata
     id="metadata1035">
    <rdf:RDF>
      <cc:Work
         rdf:about="">
        <dc:format>image/svg+xml</dc:format>
        <dc:type
           rdf:resource="http://purl.org/dc/dcmitype/StillImage" />
      </cc:Work>
    </rdf:RDF>
  </metadata>
  <sodipodi:namedview
     pagecolor="#ffffff"
     bordercolor="#666666"
     borderopacity="1"
     objecttolerance="10"
     gridtolerance="10"
     guidetolerance="10"
     inkscape:pageopacity="0"
     inkscape:pageshadow="2"
     inkscape:window-width="1920"
     inkscape:window-height="1018"
     id="namedview1033"
     showgrid="false"
     inkscape:snap-object-midpoints="true"
     showguides="false"
     inkscape:guide-bbox="true"
     fit-margin-top="1"
     fit-margin-left="1"
     fit-margin-right="1"
     fit-margin-bottom="1"
     units="in"
     inkscape:document-units="in"
     inkscape:zoom="2.0929112"
     inkscape:cx="339.61695"
     inkscape:cy="189.53091"
     inkscape:window-x="-8"
     inkscape:window-y="-8"
     inkscape:window-maximized="1"
     inkscape:current-layer="svg2">
    <sodipodi:guide
       orientation="0,1"
       position="53.853796,103.5053"
       id="guide5319" />
    <sodipodi:guide
       orientation="0,1"
       position="72.004602,234.0053"
       id="guide5321" />
    <sodipodi:guide
       orientation="1,0"
       position="112.5046,215.51815"
       id="guide5323" />
    <sodipodi:guide
       orientation="1,0"
       position="157.5046,258.19208"
       id="guide5327" />
    <sodipodi:guide
       orientation="1,0"
       position="202.5046,261.05891"
       id="guide5329" />
    <sodipodi:guide
       orientation="1,0"
       position="247.5046,258.66989"
       id="guide5331" />
    <sodipodi:guide
       orientation="0,1"
       position="68.981254,175.5053"
       id="guide5333" />
    <sodipodi:guide
       orientation="1,0"
       position="292.5046,254.84746"
       id="guide5335" />
    <sodipodi:guide
       orientation="1,0"
       position="337.5046,264.88133"
       id="guide5337" />
    <sodipodi:guide
       orientation="1,0"
       position="382.5046,253.89185"
       id="guide5339" />
    <sodipodi:guide
       orientation="1,0"
       position="427.5046,270.61497"
       id="guide5341" />
    <sodipodi:guide
       orientation="1,0"
       position="270.0046,251.16357"
       id="guide5347" />
    <sodipodi:guide
       orientation="1,0"
       position="405.0046,247.10927"
       id="guide5349" />
    <sodipodi:guide
       orientation="0,1"
       position="79.970731,139.5053"
       id="guide5937" />
  </sodipodi:namedview>
  <title
     id="title4">C:/Users/byron.jacquot/Documents/GitHub/Teensy-synth-platform/hardware/teensy-boom-jr/teensy-boom-jr.brd</title>
  <desc
     id="desc6">generated by eagle2svg 1.2, developed by http://www.nicai-systems.de</desc>
  <defs
     id="defs8">
    <style
       type="text/css"
       id="style10">
path.l20 {stroke:#ffffff; fill:none; }
line.l20 {stroke:#ffffff; fill:none; }
circle.l20 {stroke:#ffffff; fill:none; }
circle.j20 {fill:#ffffff; }
rect.l20 {fill:#ffffff; }
text.l20 {font-family:sans-serif; fill:#ffffff; }
polygon.l20 {fill:#ffffff; }
path.l21 {stroke:#000000; fill:none; }
line.l21 {stroke:#000000; fill:none; }
circle.l21 {stroke:#000000; fill:none; }
circle.j21 {fill:#000000; }
rect.l21 {fill:#000000; }
text.l21 {font-family:sans-serif; fill:#000000; }
polygon.l21 {fill:#000000; }
path.l45 {stroke:#000000; fill:none; }
line.l45 {stroke:#000000; fill:none; }
circle.l45 {stroke:#000000; fill:none; }
circle.j45 {fill:#000000; }
rect.l45 {fill:#000000; }
text.l45 {font-family:sans-serif; fill:#000000; }
polygon.l45 {fill:#000000; }
path.l51 {stroke:#000000; fill:none; }
line.l51 {stroke:#000000; fill:none; }
circle.l51 {stroke:#000000; fill:none; }
circle.j51 {fill:#000000; }
rect.l51 {fill:#000000; }
text.l51 {font-family:sans-serif; fill:#000000; }
polygon.l51 {fill:#000000; }
</style>
  </defs>
  <g
     id="g249"
     transform="translate(23.25077,25.172868)">
    <title
       id="title251">PART FD1</title>
  </g>
  <g
     id="g253"
     transform="translate(23.25077,25.172868)">
    <title
       id="title255">PART FD2</title>
  </g>
  <g
     id="g267"
     transform="translate(23.149171,25.274492)"
     style="fill:none;stroke:#000000;stroke-width:0.0254;stroke-miterlimit:4;stroke-opacity:1;stroke-dasharray:none">
    <title
       id="title269">PART H1</title>
    <circle
       sodipodi:ry="1.651"
       sodipodi:rx="1.651"
       sodipodi:cy="-40.639999"
       sodipodi:cx="6.3499999"
       id="circle271"
       style="fill:none;stroke:#000000;stroke-width:0.0254;stroke-miterlimit:4;stroke-opacity:1;stroke-dasharray:none"
       r="1.651"
       cy="-40.639999"
       cx="6.3499999"
       class="l20"
       d="M 8.0009999,-40.639999 C 8.0009999,-39.728177 7.261822,-38.988999 6.3499999,-38.988999 5.4381778,-38.988999 4.6989999,-39.728177 4.6989999,-40.639999 4.6989999,-41.551822 5.4381778,-42.290999 6.3499999,-42.290999 7.261822,-42.290999 8.0009999,-41.551822 8.0009999,-40.639999 z" />
    <circle
       style="fill:none;stroke:#000000;stroke-width:0.0254;stroke-miterlimit:4;stroke-opacity:1;stroke-dasharray:none"
       sodipodi:ry="1.651"
       sodipodi:rx="1.651"
       sodipodi:cy="-40.639999"
       sodipodi:cx="6.3499999"
       id="circle273"
       r="1.651"
       cy="-40.639999"
       cx="6.3499999"
       class="j45"
       d="M 8.0009999,-40.639999 C 8.0009999,-39.728177 7.261822,-38.988999 6.3499999,-38.988999 5.4381778,-38.988999 4.6989999,-39.728177 4.6989999,-40.639999 4.6989999,-41.551822 5.4381778,-42.290999 6.3499999,-42.290999 7.261822,-42.290999 8.0009999,-41.551822 8.0009999,-40.639999 z" />
  </g>
  <g
     id="g275"
     transform="translate(23.149171,25.274492)"
     style="fill:none;stroke:#000000;stroke-width:0.0254;stroke-miterlimit:4;stroke-opacity:1;stroke-dasharray:none">
    <title
       id="title277">PART H2</title>
    <circle
       sodipodi:ry="1.651"
       sodipodi:rx="1.651"
       sodipodi:cy="-3.8099999"
       sodipodi:cx="12.7"
       id="circle279"
       style="fill:none;stroke:#000000;stroke-width:0.0254;stroke-miterlimit:4;stroke-opacity:1;stroke-dasharray:none"
       r="1.651"
       cy="-3.8099999"
       cx="12.7"
       class="l20"
       d="M 14.351,-3.8099999 C 14.351,-2.8981778 13.611822,-2.1589999 12.7,-2.1589999 11.788178,-2.1589999 11.049,-2.8981778 11.049,-3.8099999 11.049,-4.7218221 11.788178,-5.461 12.7,-5.461 13.611822,-5.461 14.351,-4.7218221 14.351,-3.8099999 z" />
    <circle
       style="fill:none;stroke:#000000;stroke-width:0.0254;stroke-miterlimit:4;stroke-opacity:1;stroke-dasharray:none"
       sodipodi:ry="1.651"
       sodipodi:rx="1.651"
       sodipodi:cy="-3.8099999"
       sodipodi:cx="12.7"
       id="circle281"
       r="1.651"
       cy="-3.8099999"
       cx="12.7"
       class="j45"
       d="M 14.351,-3.8099999 C 14.351,-2.8981778 13.611822,-2.1589999 12.7,-2.1589999 11.788178,-2.1589999 11.049,-2.8981778 11.049,-3.8099999 11.049,-4.7218221 11.788178,-5.461 12.7,-5.461 13.611822,-5.461 14.351,-4.7218221 14.351,-3.8099999 z" />
  </g>
  <g
     id="g283"
     transform="translate(23.149171,25.274492)"
     style="fill:none;stroke:#000000;stroke-width:0.0254;stroke-miterlimit:4;stroke-opacity:1;stroke-dasharray:none">
    <title
       id="title285">PART H3</title>
    <circle
       sodipodi:ry="1.651"
       sodipodi:rx="1.651"
       sodipodi:cy="-3.8099999"
       sodipodi:cx="88.900002"
       id="circle287"
       style="fill:none;stroke:#000000;stroke-width:0.0254;stroke-miterlimit:4;stroke-opacity:1;stroke-dasharray:none"
       r="1.651"
       cy="-3.8099999"
       cx="88.900002"
       class="l20"
       d="M 90.551002,-3.8099999 C 90.551002,-2.8981778 89.811824,-2.1589999 88.900002,-2.1589999 87.988179,-2.1589999 87.249002,-2.8981778 87.249002,-3.8099999 87.249002,-4.7218221 87.988179,-5.461 88.900002,-5.461 89.811824,-5.461 90.551002,-4.7218221 90.551002,-3.8099999 z" />
    <circle
       style="fill:none;stroke:#000000;stroke-width:0.0254;stroke-miterlimit:4;stroke-opacity:1;stroke-dasharray:none"
       sodipodi:ry="1.651"
       sodipodi:rx="1.651"
       sodipodi:cy="-3.8099999"
       sodipodi:cx="88.900002"
       id="circle289"
       r="1.651"
       cy="-3.8099999"
       cx="88.900002"
       class="j45"
       d="M 90.551002,-3.8099999 C 90.551002,-2.8981778 89.811824,-2.1589999 88.900002,-2.1589999 87.988179,-2.1589999 87.249002,-2.8981778 87.249002,-3.8099999 87.249002,-4.7218221 87.988179,-5.461 88.900002,-5.461 89.811824,-5.461 90.551002,-4.7218221 90.551002,-3.8099999 z" />
  </g>
  <g
     id="g291"
     transform="translate(23.149171,25.274492)"
     style="fill:none;stroke:#000000;stroke-width:0.0254;stroke-miterlimit:4;stroke-opacity:1;stroke-dasharray:none">
    <title
       id="title293">PART H4</title>
    <circle
       sodipodi:ry="1.651"
       sodipodi:rx="1.651"
       sodipodi:cy="-40.639999"
       sodipodi:cx="95.25"
       id="circle295"
       style="fill:none;stroke:#000000;stroke-width:0.0254;stroke-miterlimit:4;stroke-opacity:1;stroke-dasharray:none"
       r="1.651"
       cy="-40.639999"
       cx="95.25"
       class="l20"
       d="M 96.901,-40.639999 C 96.901,-39.728177 96.161822,-38.988999 95.25,-38.988999 94.338178,-38.988999 93.599,-39.728177 93.599,-40.639999 93.599,-41.551822 94.338178,-42.290999 95.25,-42.290999 96.161822,-42.290999 96.901,-41.551822 96.901,-40.639999 z" />
    <circle
       style="fill:none;stroke:#000000;stroke-width:0.0254;stroke-miterlimit:4;stroke-opacity:1;stroke-dasharray:none"
       sodipodi:ry="1.651"
       sodipodi:rx="1.651"
       sodipodi:cy="-40.639999"
       sodipodi:cx="95.25"
       id="circle297"
       r="1.651"
       cy="-40.639999"
       cx="95.25"
       class="j45"
       d="M 96.901,-40.639999 C 96.901,-39.728177 96.161822,-38.988999 95.25,-38.988999 94.338178,-38.988999 93.599,-39.728177 93.599,-40.639999 93.599,-41.551822 94.338178,-42.290999 95.25,-42.290999 96.161822,-42.290999 96.901,-41.551822 96.901,-40.639999 z" />
  </g>
  <g
     id="g299"
     transform="translate(23.149171,25.274492)"
     style="fill:none;stroke:#000000;stroke-width:0.0254;stroke-miterlimit:4;stroke-opacity:1;stroke-dasharray:none">
    <title
       id="title301">PART H5</title>
    <circle
       sodipodi:ry="1.651"
       sodipodi:rx="1.651"
       sodipodi:cy="-3.8099999"
       sodipodi:cx="50.799999"
       id="circle303"
       style="fill:none;stroke:#000000;stroke-width:0.0254;stroke-miterlimit:4;stroke-opacity:1;stroke-dasharray:none"
       r="1.651"
       cy="-3.8099999"
       cx="50.799999"
       class="l20"
       d="M 52.450999,-3.8099999 C 52.450999,-2.8981778 51.711821,-2.1589999 50.799999,-2.1589999 49.888177,-2.1589999 49.148999,-2.8981778 49.148999,-3.8099999 49.148999,-4.7218221 49.888177,-5.461 50.799999,-5.461 51.711821,-5.461 52.450999,-4.7218221 52.450999,-3.8099999 z" />
    <circle
       style="fill:none;stroke:#000000;stroke-width:0.0254;stroke-miterlimit:4;stroke-opacity:1;stroke-dasharray:none"
       sodipodi:ry="1.651"
       sodipodi:rx="1.651"
       sodipodi:cy="-3.8099999"
       sodipodi:cx="50.799999"
       id="circle305"
       r="1.651"
       cy="-3.8099999"
       cx="50.799999"
       class="j45"
       d="M 52.450999,-3.8099999 C 52.450999,-2.8981778 51.711821,-2.1589999 50.799999,-2.1589999 49.888177,-2.1589999 49.148999,-2.8981778 49.148999,-3.8099999 49.148999,-4.7218221 49.888177,-5.461 50.799999,-5.461 51.711821,-5.461 52.450999,-4.7218221 52.450999,-3.8099999 z" />
  </g>
  <circle
     d="M 9.8499999,-13.97 C 9.8499999,-12.037004 8.2829965,-10.47 6.3499999,-10.47 4.4170033,-10.47 2.8499999,-12.037004 2.8499999,-13.97 2.8499999,-15.902997 4.4170033,-17.47 6.3499999,-17.47 8.2829965,-17.47 9.8499999,-15.902997 9.8499999,-13.97 z"
     class="l21"
     cx="6.3499999"
     cy="-13.97"
     r="3.5"
     style="fill:none;stroke:#000000;stroke-width:0.0254;stroke-miterlimit:4;stroke-dasharray:none"
     id="circle567"
     sodipodi:cx="6.3499999"
     sodipodi:cy="-13.97"
     sodipodi:rx="3.5"
     sodipodi:ry="3.5"
     transform="translate(23.149171,25.274495)" />
  <circle
     d="M 9.8499999,-13.97 C 9.8499999,-12.037004 8.2829965,-10.47 6.3499999,-10.47 4.4170033,-10.47 2.8499999,-12.037004 2.8499999,-13.97 2.8499999,-15.902997 4.4170033,-17.47 6.3499999,-17.47 8.2829965,-17.47 9.8499999,-15.902997 9.8499999,-13.97 z"
     class="l21"
     cx="6.3499999"
     cy="-13.97"
     r="3.5"
     style="fill:none;stroke:#000000;stroke-width:0.0254;stroke-miterlimit:4;stroke-dasharray:none"
     id="circle567-9"
     sodipodi:cx="6.3499999"
     sodipodi:cy="-13.97"
     sodipodi:rx="3.5"
     sodipodi:ry="3.5"
     transform="translate(35.849172,25.274495)" />
  <circle
     d="M 9.8499999,-13.97 C 9.8499999,-12.037004 8.2829965,-10.47 6.3499999,-10.47 4.4170033,-10.47 2.8499999,-12.037004 2.8499999,-13.97 2.8499999,-15.902997 4.4170033,-17.47 6.3499999,-17.47 8.2829965,-17.47 9.8499999,-15.902997 9.8499999,-13.97 z"
     class="l21"
     cx="6.3499999"
     cy="-13.97"
     r="3.5"
     style="fill:none;stroke:#000000;stroke-width:0.0254;stroke-miterlimit:4;stroke-dasharray:none"
     id="circle567-4"
     sodipodi:cx="6.3499999"
     sodipodi:cy="-13.97"
     sodipodi:rx="3.5"
     sodipodi:ry="3.5"
     transform="translate(48.549173,25.274495)" />
  <circle
     d="M 9.8499999,-13.97 C 9.8499999,-12.037004 8.2829965,-10.47 6.3499999,-10.47 4.4170033,-10.47 2.8499999,-12.037004 2.8499999,-13.97 2.8499999,-15.902997 4.4170033,-17.47 6.3499999,-17.47 8.2829965,-17.47 9.8499999,-15.902997 9.8499999,-13.97 z"
     class="l21"
     cx="6.3499999"
     cy="-13.97"
     r="3.5"
     style="fill:none;stroke:#000000;stroke-width:0.0254;stroke-miterlimit:4;stroke-dasharray:none"
     id="circle567-8"
     sodipodi:cx="6.3499999"
     sodipodi:cy="-13.97"
     sodipodi:rx="3.5"
     sodipodi:ry="3.5"
     transform="translate(61.249174,25.274495)" />
  <circle
     d="M 9.8499999,-13.97 C 9.8499999,-12.037004 8.2829965,-10.47 6.3499999,-10.47 4.4170033,-10.47 2.8499999,-12.037004 2.8499999,-13.97 2.8499999,-15.902997 4.4170033,-17.47 6.3499999,-17.47 8.2829965,-17.47 9.8499999,-15.902997 9.8499999,-13.97 z"
     class="l21"
     cx="6.3499999"
     cy="-13.97"
     r="3.5"
     style="fill:none;stroke:#000000;stroke-width:0.0254;stroke-miterlimit:4;stroke-dasharray:none"
     id="circle567-82"
     sodipodi:cx="6.3499999"
     sodipodi:cy="-13.97"
     sodipodi:rx="3.5"
     sodipodi:ry="3.5"
     transform="translate(73.949176,25.274495)" />
  <circle
     d="M 9.8499999,-13.97 C 9.8499999,-12.037004 8.2829965,-10.47 6.3499999,-10.47 4.4170033,-10.47 2.8499999,-12.037004 2.8499999,-13.97 2.8499999,-15.902997 4.4170033,-17.47 6.3499999,-17.47 8.2829965,-17.47 9.8499999,-15.902997 9.8499999,-13.97 z"
     class="l21"
     cx="6.3499999"
     cy="-13.97"
     r="3.5"
     style="fill:none;stroke:#000000;stroke-width:0.0254;stroke-miterlimit:4;stroke-dasharray:none"
     id="circle567-45"
     sodipodi:cx="6.3499999"
     sodipodi:cy="-13.97"
     sodipodi:rx="3.5"
     sodipodi:ry="3.5"
     transform="translate(86.649177,25.274495)" />
  <circle
     d="M 9.8499999,-13.97 C 9.8499999,-12.037004 8.2829965,-10.47 6.3499999,-10.47 4.4170033,-10.47 2.8499999,-12.037004 2.8499999,-13.97 2.8499999,-15.902997 4.4170033,-17.47 6.3499999,-17.47 8.2829965,-17.47 9.8499999,-15.902997 9.8499999,-13.97 z"
     class="l21"
     cx="6.3499999"
     cy="-13.97"
     r="3.5"
     style="fill:none;stroke:#000000;stroke-width:0.0254;stroke-miterlimit:4;stroke-dasharray:none"
     id="circle567-5"
     sodipodi:cx="6.3499999"
     sodipodi:cy="-13.97"
     sodipodi:rx="3.5"
     sodipodi:ry="3.5"
     transform="translate(99.349178,25.274495)" />
  <circle
     d="M 9.8499999,-13.97 C 9.8499999,-12.037004 8.2829965,-10.47 6.3499999,-10.47 4.4170033,-10.47 2.8499999,-12.037004 2.8499999,-13.97 2.8499999,-15.902997 4.4170033,-17.47 6.3499999,-17.47 8.2829965,-17.47 9.8499999,-15.902997 9.8499999,-13.97 z"
     class="l21"
     cx="6.3499999"
     cy="-13.97"
     r="3.5"
     style="fill:none;stroke:#000000;stroke-width:0.0254;stroke-miterlimit:4;stroke-dasharray:none"
     id="circle567-1"
     sodipodi:cx="6.3499999"
     sodipodi:cy="-13.97"
     sodipodi:rx="3.5"
     sodipodi:ry="3.5"
     transform="translate(112.04918,25.274495)" />
  <path
     sodipodi:type="arc"
     style="fill:none;stroke:#000000;stroke-width:0.05601023;stroke-linecap:round;stroke-linejoin:miter;stroke-miterlimit:4;stroke-opacity:1;stroke-dasharray:none;stroke-dashoffset:0"
     id="path6019"
     sodipodi:cx="-19.17186"
     sodipodi:cy="72.689903"
     sodipodi:rx="6.1517181"
     sodipodi:ry="5.0169353"
     d="M -13.020142,72.689903 A 6.1517181,5.0169353 0 1 1 -25.323578,72.689903 6.1517181,5.0169353 0 1 1 -13.020142,72.689903 z"
     transform="matrix(0.40966297,0,0,0.50200272,37.353172,-35.346035)" />
  <path
     sodipodi:type="arc"
     style="fill:none;stroke:#000000;stroke-width:0.05601023;stroke-linecap:round;stroke-linejoin:miter;stroke-miterlimit:4;stroke-opacity:1;stroke-dasharray:none;stroke-dashoffset:0"
     id="path6019-7"
     sodipodi:cx="-19.17186"
     sodipodi:cy="72.689903"
     sodipodi:rx="6.1517181"
     sodipodi:ry="5.0169353"
     d="M -13.020142,72.689903 A 6.1517181,5.0169353 0 1 1 -25.323578,72.689903 6.1517181,5.0169353 0 1 1 -13.020142,72.689903 z"
     transform="matrix(0.40966298,0,0,0.50200271,50.07338,-35.244495)" />
  <path
     sodipodi:type="arc"
     style="fill:none;stroke:#000000;stroke-width:0.05601023;stroke-linecap:round;stroke-linejoin:miter;stroke-miterlimit:4;stroke-opacity:1;stroke-dasharray:none;stroke-dashoffset:0"
     id="path6019-1"
     sodipodi:cx="-19.17186"
     sodipodi:cy="72.689903"
     sodipodi:rx="6.1517181"
     sodipodi:ry="5.0169353"
     d="M -13.020142,72.689903 A 6.1517181,5.0169353 0 1 1 -25.323578,72.689903 6.1517181,5.0169353 0 1 1 -13.020142,72.689903 z"
     transform="matrix(0.40966298,0,0,0.50200271,62.753174,-35.346034)" />
  <path
     sodipodi:type="arc"
     style="fill:none;stroke:#000000;stroke-width:0.05601023;stroke-linecap:round;stroke-linejoin:miter;stroke-miterlimit:4;stroke-opacity:1;stroke-dasharray:none;stroke-dashoffset:0"
     id="path6019-15"
     sodipodi:cx="-19.17186"
     sodipodi:cy="72.689903"
     sodipodi:rx="6.1517181"
     sodipodi:ry="5.0169353"
     d="M -13.020142,72.689903 A 6.1517181,5.0169353 0 1 1 -25.323578,72.689903 6.1517181,5.0169353 0 1 1 -13.020142,72.689903 z"
     transform="matrix(0.40966298,0,0,0.50200271,75.453176,-35.346034)" />
  <path
     sodipodi:type="arc"
     style="fill:none;stroke:#000000;stroke-width:0.05601023;stroke-linecap:round;stroke-linejoin:miter;stroke-miterlimit:4;stroke-opacity:1;stroke-dasharray:none;stroke-dashoffset:0"
     id="path6019-2"
     sodipodi:cx="-19.17186"
     sodipodi:cy="72.689903"
     sodipodi:rx="6.1517181"
     sodipodi:ry="5.0169353"
     d="M -13.020142,72.689903 A 6.1517181,5.0169353 0 1 1 -25.323578,72.689903 6.1517181,5.0169353 0 1 1 -13.020142,72.689903 z"
     transform="matrix(0.40966298,0,0,0.50200271,88.153177,-35.346034)" />
  <path
     sodipodi:type="arc"
     style="fill:none;stroke:#000000;stroke-width:0.05601023;stroke-linecap:round;stroke-linejoin:miter;stroke-miterlimit:4;stroke-opacity:1;stroke-dasharray:none;stroke-dashoffset:0"
     id="path6019-76"
     sodipodi:cx="-19.17186"
     sodipodi:cy="72.689903"
     sodipodi:rx="6.1517181"
     sodipodi:ry="5.0169353"
     d="M -13.020142,72.689903 A 6.1517181,5.0169353 0 1 1 -25.323578,72.689903 6.1517181,5.0169353 0 1 1 -13.020142,72.689903 z"
     transform="matrix(0.40966298,0,0,0.50200271,100.85318,-35.346034)" />
  <path
     sodipodi:type="arc"
     style="fill:none;stroke:#000000;stroke-width:0.05601023;stroke-linecap:round;stroke-linejoin:miter;stroke-miterlimit:4;stroke-opacity:1;stroke-dasharray:none;stroke-dashoffset:0"
     id="path6019-14"
     sodipodi:cx="-19.17186"
     sodipodi:cy="72.689903"
     sodipodi:rx="6.1517181"
     sodipodi:ry="5.0169353"
     d="M -13.020142,72.689903 A 6.1517181,5.0169353 0 1 1 -25.323578,72.689903 6.1517181,5.0169353 0 1 1 -13.020142,72.689903 z"
     transform="matrix(0.40966298,0,0,0.50200271,113.55318,-35.346034)" />
  <path
     sodipodi:type="arc"
     style="fill:none;stroke:#000000;stroke-width:0.05601023;stroke-linecap:round;stroke-linejoin:miter;stroke-miterlimit:4;stroke-opacity:1;stroke-dasharray:none;stroke-dashoffset:0"
     id="path6019-23"
     sodipodi:cx="-19.17186"
     sodipodi:cy="72.689903"
     sodipodi:rx="6.1517181"
     sodipodi:ry="5.0169353"
     d="M -13.020142,72.689903 A 6.1517181,5.0169353 0 1 1 -25.323578,72.689903 6.1517181,5.0169353 0 1 1 -13.020142,72.689903 z"
     transform="matrix(0.40966298,0,0,0.50200271,126.25318,-35.346034)" />
  <rect
     style="fill:none;stroke:#000000;stroke-width:0.0254;stroke-linecap:round;stroke-linejoin:miter;stroke-miterlimit:4;stroke-opacity:1;stroke-dasharray:none;stroke-dashoffset:0"
     id="rect6081"
     x="19.621181"
     y="-26.215067"
     width="0"
     height="0"
     rx="360"
     ry="157.5" />
  <rect
     style="fill:none;stroke:#000000;stroke-width:0.0254;stroke-linecap:round;stroke-linejoin:miter;stroke-miterlimit:4;stroke-opacity:1;stroke-dasharray:none;stroke-dashoffset:0"
     id="rect6085"
     width="101.56733"
     height="44.417713"
     x="23.16551"
     y="-19.159361"
     rx="28.673782"
     ry="0" />
</svg>
